<?xml version="1.0" encoding="utf-8"?>
<svg xmlns="http://www.w3.org/2000/svg" xmlns:xlink="http://www.w3.org/1999/xlink" width="600" height="400" viewBox="0 0 2400 1600">
<defs>
  <clipPath id="clip750">
    <rect x="0" y="0" width="2400" height="1600"/>
  </clipPath>
</defs>
<path clip-path="url(#clip750)" d="M0 1600 L2400 1600 L2400 0 L0 0  Z" fill="#ffffff" fill-rule="evenodd" fill-opacity="1"/>
<defs>
  <clipPath id="clip751">
    <rect x="480" y="0" width="1681" height="1600"/>
  </clipPath>
</defs>
<path clip-path="url(#clip750)" d="M156.274 1486.45 L2352.76 1486.45 L2352.76 47.2441 L156.274 47.2441  Z" fill="#ffffff" fill-rule="evenodd" fill-opacity="1"/>
<defs>
  <clipPath id="clip752">
    <rect x="156" y="47" width="2197" height="1440"/>
  </clipPath>
</defs>
<polyline clip-path="url(#clip752)" style="stroke:#000000; stroke-linecap:round; stroke-linejoin:round; stroke-width:2; stroke-opacity:0.1; fill:none" points="218.439,1486.45 218.439,47.2441 "/>
<polyline clip-path="url(#clip752)" style="stroke:#000000; stroke-linecap:round; stroke-linejoin:round; stroke-width:2; stroke-opacity:0.1; fill:none" points="736.477,1486.45 736.477,47.2441 "/>
<polyline clip-path="url(#clip752)" style="stroke:#000000; stroke-linecap:round; stroke-linejoin:round; stroke-width:2; stroke-opacity:0.1; fill:none" points="1254.52,1486.45 1254.52,47.2441 "/>
<polyline clip-path="url(#clip752)" style="stroke:#000000; stroke-linecap:round; stroke-linejoin:round; stroke-width:2; stroke-opacity:0.1; fill:none" points="1772.55,1486.45 1772.55,47.2441 "/>
<polyline clip-path="url(#clip752)" style="stroke:#000000; stroke-linecap:round; stroke-linejoin:round; stroke-width:2; stroke-opacity:0.1; fill:none" points="2290.59,1486.45 2290.59,47.2441 "/>
<polyline clip-path="url(#clip752)" style="stroke:#000000; stroke-linecap:round; stroke-linejoin:round; stroke-width:2; stroke-opacity:0.1; fill:none" points="156.274,1262.52 2352.76,1262.52 "/>
<polyline clip-path="url(#clip752)" style="stroke:#000000; stroke-linecap:round; stroke-linejoin:round; stroke-width:2; stroke-opacity:0.1; fill:none" points="156.274,1015.58 2352.76,1015.58 "/>
<polyline clip-path="url(#clip752)" style="stroke:#000000; stroke-linecap:round; stroke-linejoin:round; stroke-width:2; stroke-opacity:0.1; fill:none" points="156.274,768.639 2352.76,768.639 "/>
<polyline clip-path="url(#clip752)" style="stroke:#000000; stroke-linecap:round; stroke-linejoin:round; stroke-width:2; stroke-opacity:0.1; fill:none" points="156.274,521.7 2352.76,521.7 "/>
<polyline clip-path="url(#clip752)" style="stroke:#000000; stroke-linecap:round; stroke-linejoin:round; stroke-width:2; stroke-opacity:0.1; fill:none" points="156.274,274.762 2352.76,274.762 "/>
<polyline clip-path="url(#clip750)" style="stroke:#000000; stroke-linecap:round; stroke-linejoin:round; stroke-width:4; stroke-opacity:1; fill:none" points="156.274,1486.45 2352.76,1486.45 "/>
<polyline clip-path="url(#clip750)" style="stroke:#000000; stroke-linecap:round; stroke-linejoin:round; stroke-width:4; stroke-opacity:1; fill:none" points="218.439,1486.45 218.439,1467.55 "/>
<polyline clip-path="url(#clip750)" style="stroke:#000000; stroke-linecap:round; stroke-linejoin:round; stroke-width:4; stroke-opacity:1; fill:none" points="736.477,1486.45 736.477,1467.55 "/>
<polyline clip-path="url(#clip750)" style="stroke:#000000; stroke-linecap:round; stroke-linejoin:round; stroke-width:4; stroke-opacity:1; fill:none" points="1254.52,1486.45 1254.52,1467.55 "/>
<polyline clip-path="url(#clip750)" style="stroke:#000000; stroke-linecap:round; stroke-linejoin:round; stroke-width:4; stroke-opacity:1; fill:none" points="1772.55,1486.45 1772.55,1467.55 "/>
<polyline clip-path="url(#clip750)" style="stroke:#000000; stroke-linecap:round; stroke-linejoin:round; stroke-width:4; stroke-opacity:1; fill:none" points="2290.59,1486.45 2290.59,1467.55 "/>
<path clip-path="url(#clip750)" d="M180.742 1517.37 Q177.131 1517.37 175.302 1520.93 Q173.497 1524.47 173.497 1531.6 Q173.497 1538.71 175.302 1542.27 Q177.131 1545.82 180.742 1545.82 Q184.376 1545.82 186.182 1542.27 Q188.011 1538.71 188.011 1531.6 Q188.011 1524.47 186.182 1520.93 Q184.376 1517.37 180.742 1517.37 M180.742 1513.66 Q186.552 1513.66 189.608 1518.27 Q192.687 1522.85 192.687 1531.6 Q192.687 1540.33 189.608 1544.94 Q186.552 1549.52 180.742 1549.52 Q174.932 1549.52 171.853 1544.94 Q168.798 1540.33 168.798 1531.6 Q168.798 1522.85 171.853 1518.27 Q174.932 1513.66 180.742 1513.66 Z" fill="#000000" fill-rule="nonzero" fill-opacity="1" /><path clip-path="url(#clip750)" d="M200.904 1542.97 L205.788 1542.97 L205.788 1548.85 L200.904 1548.85 L200.904 1542.97 Z" fill="#000000" fill-rule="nonzero" fill-opacity="1" /><path clip-path="url(#clip750)" d="M225.973 1517.37 Q222.362 1517.37 220.534 1520.93 Q218.728 1524.47 218.728 1531.6 Q218.728 1538.71 220.534 1542.27 Q222.362 1545.82 225.973 1545.82 Q229.608 1545.82 231.413 1542.27 Q233.242 1538.71 233.242 1531.6 Q233.242 1524.47 231.413 1520.93 Q229.608 1517.37 225.973 1517.37 M225.973 1513.66 Q231.784 1513.66 234.839 1518.27 Q237.918 1522.85 237.918 1531.6 Q237.918 1540.33 234.839 1544.94 Q231.784 1549.52 225.973 1549.52 Q220.163 1549.52 217.085 1544.94 Q214.029 1540.33 214.029 1531.6 Q214.029 1522.85 217.085 1518.27 Q220.163 1513.66 225.973 1513.66 Z" fill="#000000" fill-rule="nonzero" fill-opacity="1" /><path clip-path="url(#clip750)" d="M256.135 1517.37 Q252.524 1517.37 250.696 1520.93 Q248.89 1524.47 248.89 1531.6 Q248.89 1538.71 250.696 1542.27 Q252.524 1545.82 256.135 1545.82 Q259.77 1545.82 261.575 1542.27 Q263.404 1538.71 263.404 1531.6 Q263.404 1524.47 261.575 1520.93 Q259.77 1517.37 256.135 1517.37 M256.135 1513.66 Q261.945 1513.66 265.001 1518.27 Q268.08 1522.85 268.08 1531.6 Q268.08 1540.33 265.001 1544.94 Q261.945 1549.52 256.135 1549.52 Q250.325 1549.52 247.246 1544.94 Q244.191 1540.33 244.191 1531.6 Q244.191 1522.85 247.246 1518.27 Q250.325 1513.66 256.135 1513.66 Z" fill="#000000" fill-rule="nonzero" fill-opacity="1" /><path clip-path="url(#clip750)" d="M699.278 1517.37 Q695.667 1517.37 693.838 1520.93 Q692.033 1524.47 692.033 1531.6 Q692.033 1538.71 693.838 1542.27 Q695.667 1545.82 699.278 1545.82 Q702.912 1545.82 704.718 1542.27 Q706.546 1538.71 706.546 1531.6 Q706.546 1524.47 704.718 1520.93 Q702.912 1517.37 699.278 1517.37 M699.278 1513.66 Q705.088 1513.66 708.144 1518.27 Q711.222 1522.85 711.222 1531.6 Q711.222 1540.33 708.144 1544.94 Q705.088 1549.52 699.278 1549.52 Q693.468 1549.52 690.389 1544.94 Q687.334 1540.33 687.334 1531.6 Q687.334 1522.85 690.389 1518.27 Q693.468 1513.66 699.278 1513.66 Z" fill="#000000" fill-rule="nonzero" fill-opacity="1" /><path clip-path="url(#clip750)" d="M719.44 1542.97 L724.324 1542.97 L724.324 1548.85 L719.44 1548.85 L719.44 1542.97 Z" fill="#000000" fill-rule="nonzero" fill-opacity="1" /><path clip-path="url(#clip750)" d="M738.537 1544.91 L754.856 1544.91 L754.856 1548.85 L732.912 1548.85 L732.912 1544.91 Q735.574 1542.16 740.157 1537.53 Q744.764 1532.88 745.944 1531.53 Q748.19 1529.01 749.069 1527.27 Q749.972 1525.51 749.972 1523.82 Q749.972 1521.07 748.028 1519.33 Q746.106 1517.6 743.005 1517.6 Q740.806 1517.6 738.352 1518.36 Q735.921 1519.13 733.144 1520.68 L733.144 1515.95 Q735.968 1514.82 738.421 1514.24 Q740.875 1513.66 742.912 1513.66 Q748.282 1513.66 751.477 1516.35 Q754.671 1519.03 754.671 1523.52 Q754.671 1525.65 753.861 1527.57 Q753.074 1529.47 750.968 1532.07 Q750.389 1532.74 747.287 1535.95 Q744.185 1539.15 738.537 1544.91 Z" fill="#000000" fill-rule="nonzero" fill-opacity="1" /><path clip-path="url(#clip750)" d="M764.717 1514.29 L783.074 1514.29 L783.074 1518.22 L769 1518.22 L769 1526.7 Q770.018 1526.35 771.037 1526.19 Q772.055 1526 773.074 1526 Q778.861 1526 782.241 1529.17 Q785.62 1532.34 785.62 1537.76 Q785.62 1543.34 782.148 1546.44 Q778.676 1549.52 772.356 1549.52 Q770.18 1549.52 767.912 1549.15 Q765.667 1548.78 763.259 1548.04 L763.259 1543.34 Q765.342 1544.47 767.565 1545.03 Q769.787 1545.58 772.264 1545.58 Q776.268 1545.58 778.606 1543.48 Q780.944 1541.37 780.944 1537.76 Q780.944 1534.15 778.606 1532.04 Q776.268 1529.94 772.264 1529.94 Q770.389 1529.94 768.514 1530.35 Q766.662 1530.77 764.717 1531.65 L764.717 1514.29 Z" fill="#000000" fill-rule="nonzero" fill-opacity="1" /><path clip-path="url(#clip750)" d="M1216.82 1517.37 Q1213.21 1517.37 1211.38 1520.93 Q1209.57 1524.47 1209.57 1531.6 Q1209.57 1538.71 1211.38 1542.27 Q1213.21 1545.82 1216.82 1545.82 Q1220.45 1545.82 1222.26 1542.27 Q1224.09 1538.71 1224.09 1531.6 Q1224.09 1524.47 1222.26 1520.93 Q1220.45 1517.37 1216.82 1517.37 M1216.82 1513.66 Q1222.63 1513.66 1225.68 1518.27 Q1228.76 1522.85 1228.76 1531.6 Q1228.76 1540.33 1225.68 1544.94 Q1222.63 1549.52 1216.82 1549.52 Q1211.01 1549.52 1207.93 1544.94 Q1204.87 1540.33 1204.87 1531.6 Q1204.87 1522.85 1207.93 1518.27 Q1211.01 1513.66 1216.82 1513.66 Z" fill="#000000" fill-rule="nonzero" fill-opacity="1" /><path clip-path="url(#clip750)" d="M1236.98 1542.97 L1241.86 1542.97 L1241.86 1548.85 L1236.98 1548.85 L1236.98 1542.97 Z" fill="#000000" fill-rule="nonzero" fill-opacity="1" /><path clip-path="url(#clip750)" d="M1252.1 1514.29 L1270.45 1514.29 L1270.45 1518.22 L1256.38 1518.22 L1256.38 1526.7 Q1257.4 1526.35 1258.42 1526.19 Q1259.43 1526 1260.45 1526 Q1266.24 1526 1269.62 1529.17 Q1273 1532.34 1273 1537.76 Q1273 1543.34 1269.53 1546.44 Q1266.05 1549.52 1259.73 1549.52 Q1257.56 1549.52 1255.29 1549.15 Q1253.05 1548.78 1250.64 1548.04 L1250.64 1543.34 Q1252.72 1544.47 1254.94 1545.03 Q1257.17 1545.58 1259.64 1545.58 Q1263.65 1545.58 1265.98 1543.48 Q1268.32 1541.37 1268.32 1537.76 Q1268.32 1534.15 1265.98 1532.04 Q1263.65 1529.94 1259.64 1529.94 Q1257.77 1529.94 1255.89 1530.35 Q1254.04 1530.77 1252.1 1531.65 L1252.1 1514.29 Z" fill="#000000" fill-rule="nonzero" fill-opacity="1" /><path clip-path="url(#clip750)" d="M1292.21 1517.37 Q1288.6 1517.37 1286.77 1520.93 Q1284.97 1524.47 1284.97 1531.6 Q1284.97 1538.71 1286.77 1542.27 Q1288.6 1545.82 1292.21 1545.82 Q1295.85 1545.82 1297.65 1542.27 Q1299.48 1538.71 1299.48 1531.6 Q1299.48 1524.47 1297.65 1520.93 Q1295.85 1517.37 1292.21 1517.37 M1292.21 1513.66 Q1298.02 1513.66 1301.08 1518.27 Q1304.16 1522.85 1304.16 1531.6 Q1304.16 1540.33 1301.08 1544.94 Q1298.02 1549.52 1292.21 1549.52 Q1286.4 1549.52 1283.32 1544.94 Q1280.27 1540.33 1280.27 1531.6 Q1280.27 1522.85 1283.32 1518.27 Q1286.4 1513.66 1292.21 1513.66 Z" fill="#000000" fill-rule="nonzero" fill-opacity="1" /><path clip-path="url(#clip750)" d="M1735.35 1517.37 Q1731.74 1517.37 1729.91 1520.93 Q1728.11 1524.47 1728.11 1531.6 Q1728.11 1538.71 1729.91 1542.27 Q1731.74 1545.82 1735.35 1545.82 Q1738.99 1545.82 1740.79 1542.27 Q1742.62 1538.71 1742.62 1531.6 Q1742.62 1524.47 1740.79 1520.93 Q1738.99 1517.37 1735.35 1517.37 M1735.35 1513.66 Q1741.16 1513.66 1744.22 1518.27 Q1747.3 1522.85 1747.3 1531.6 Q1747.3 1540.33 1744.22 1544.94 Q1741.16 1549.52 1735.35 1549.52 Q1729.54 1549.52 1726.47 1544.94 Q1723.41 1540.33 1723.41 1531.6 Q1723.41 1522.85 1726.47 1518.27 Q1729.54 1513.66 1735.35 1513.66 Z" fill="#000000" fill-rule="nonzero" fill-opacity="1" /><path clip-path="url(#clip750)" d="M1755.52 1542.97 L1760.4 1542.97 L1760.4 1548.85 L1755.52 1548.85 L1755.52 1542.97 Z" fill="#000000" fill-rule="nonzero" fill-opacity="1" /><path clip-path="url(#clip750)" d="M1769.41 1514.29 L1791.63 1514.29 L1791.63 1516.28 L1779.08 1548.85 L1774.2 1548.85 L1786 1518.22 L1769.41 1518.22 L1769.41 1514.29 Z" fill="#000000" fill-rule="nonzero" fill-opacity="1" /><path clip-path="url(#clip750)" d="M1800.79 1514.29 L1819.15 1514.29 L1819.15 1518.22 L1805.08 1518.22 L1805.08 1526.7 Q1806.09 1526.35 1807.11 1526.19 Q1808.13 1526 1809.15 1526 Q1814.94 1526 1818.32 1529.17 Q1821.7 1532.34 1821.7 1537.76 Q1821.7 1543.34 1818.22 1546.44 Q1814.75 1549.52 1808.43 1549.52 Q1806.26 1549.52 1803.99 1549.15 Q1801.74 1548.78 1799.34 1548.04 L1799.34 1543.34 Q1801.42 1544.47 1803.64 1545.03 Q1805.86 1545.58 1808.34 1545.58 Q1812.34 1545.58 1814.68 1543.48 Q1817.02 1541.37 1817.02 1537.76 Q1817.02 1534.15 1814.68 1532.04 Q1812.34 1529.94 1808.34 1529.94 Q1806.47 1529.94 1804.59 1530.35 Q1802.74 1530.77 1800.79 1531.65 L1800.79 1514.29 Z" fill="#000000" fill-rule="nonzero" fill-opacity="1" /><path clip-path="url(#clip750)" d="M2242.66 1544.91 L2250.3 1544.91 L2250.3 1518.55 L2241.99 1520.21 L2241.99 1515.95 L2250.26 1514.29 L2254.93 1514.29 L2254.93 1544.91 L2262.57 1544.91 L2262.57 1548.85 L2242.66 1548.85 L2242.66 1544.91 Z" fill="#000000" fill-rule="nonzero" fill-opacity="1" /><path clip-path="url(#clip750)" d="M2272.02 1542.97 L2276.9 1542.97 L2276.9 1548.85 L2272.02 1548.85 L2272.02 1542.97 Z" fill="#000000" fill-rule="nonzero" fill-opacity="1" /><path clip-path="url(#clip750)" d="M2297.08 1517.37 Q2293.47 1517.37 2291.64 1520.93 Q2289.84 1524.47 2289.84 1531.6 Q2289.84 1538.71 2291.64 1542.27 Q2293.47 1545.82 2297.08 1545.82 Q2300.72 1545.82 2302.52 1542.27 Q2304.35 1538.71 2304.35 1531.6 Q2304.35 1524.47 2302.52 1520.93 Q2300.72 1517.37 2297.08 1517.37 M2297.08 1513.66 Q2302.89 1513.66 2305.95 1518.27 Q2309.03 1522.85 2309.03 1531.6 Q2309.03 1540.33 2305.95 1544.94 Q2302.89 1549.52 2297.08 1549.52 Q2291.27 1549.52 2288.2 1544.94 Q2285.14 1540.33 2285.14 1531.6 Q2285.14 1522.85 2288.2 1518.27 Q2291.27 1513.66 2297.08 1513.66 Z" fill="#000000" fill-rule="nonzero" fill-opacity="1" /><path clip-path="url(#clip750)" d="M2327.25 1517.37 Q2323.64 1517.37 2321.81 1520.93 Q2320 1524.47 2320 1531.6 Q2320 1538.71 2321.81 1542.27 Q2323.64 1545.82 2327.25 1545.82 Q2330.88 1545.82 2332.69 1542.27 Q2334.51 1538.71 2334.51 1531.6 Q2334.51 1524.47 2332.69 1520.93 Q2330.88 1517.37 2327.25 1517.37 M2327.25 1513.66 Q2333.06 1513.66 2336.11 1518.27 Q2339.19 1522.85 2339.19 1531.6 Q2339.19 1540.33 2336.11 1544.94 Q2333.06 1549.52 2327.25 1549.52 Q2321.44 1549.52 2318.36 1544.94 Q2315.3 1540.33 2315.3 1531.6 Q2315.3 1522.85 2318.36 1518.27 Q2321.44 1513.66 2327.25 1513.66 Z" fill="#000000" fill-rule="nonzero" fill-opacity="1" /><polyline clip-path="url(#clip750)" style="stroke:#000000; stroke-linecap:round; stroke-linejoin:round; stroke-width:4; stroke-opacity:1; fill:none" points="156.274,1486.45 156.274,47.2441 "/>
<polyline clip-path="url(#clip750)" style="stroke:#000000; stroke-linecap:round; stroke-linejoin:round; stroke-width:4; stroke-opacity:1; fill:none" points="156.274,1262.52 175.172,1262.52 "/>
<polyline clip-path="url(#clip750)" style="stroke:#000000; stroke-linecap:round; stroke-linejoin:round; stroke-width:4; stroke-opacity:1; fill:none" points="156.274,1015.58 175.172,1015.58 "/>
<polyline clip-path="url(#clip750)" style="stroke:#000000; stroke-linecap:round; stroke-linejoin:round; stroke-width:4; stroke-opacity:1; fill:none" points="156.274,768.639 175.172,768.639 "/>
<polyline clip-path="url(#clip750)" style="stroke:#000000; stroke-linecap:round; stroke-linejoin:round; stroke-width:4; stroke-opacity:1; fill:none" points="156.274,521.7 175.172,521.7 "/>
<polyline clip-path="url(#clip750)" style="stroke:#000000; stroke-linecap:round; stroke-linejoin:round; stroke-width:4; stroke-opacity:1; fill:none" points="156.274,274.762 175.172,274.762 "/>
<path clip-path="url(#clip750)" d="M62.9365 1248.31 Q59.3254 1248.31 57.4967 1251.88 Q55.6912 1255.42 55.6912 1262.55 Q55.6912 1269.66 57.4967 1273.22 Q59.3254 1276.76 62.9365 1276.76 Q66.5707 1276.76 68.3763 1273.22 Q70.205 1269.66 70.205 1262.55 Q70.205 1255.42 68.3763 1251.88 Q66.5707 1248.31 62.9365 1248.31 M62.9365 1244.61 Q68.7467 1244.61 71.8022 1249.22 Q74.8809 1253.8 74.8809 1262.55 Q74.8809 1271.28 71.8022 1275.88 Q68.7467 1280.47 62.9365 1280.47 Q57.1264 1280.47 54.0477 1275.88 Q50.9921 1271.28 50.9921 1262.55 Q50.9921 1253.8 54.0477 1249.22 Q57.1264 1244.61 62.9365 1244.61 Z" fill="#000000" fill-rule="nonzero" fill-opacity="1" /><path clip-path="url(#clip750)" d="M83.0984 1273.92 L87.9827 1273.92 L87.9827 1279.8 L83.0984 1279.8 L83.0984 1273.92 Z" fill="#000000" fill-rule="nonzero" fill-opacity="1" /><path clip-path="url(#clip750)" d="M108.746 1260.65 Q105.598 1260.65 103.746 1262.8 Q101.918 1264.96 101.918 1268.71 Q101.918 1272.43 103.746 1274.61 Q105.598 1276.76 108.746 1276.76 Q111.895 1276.76 113.723 1274.61 Q115.575 1272.43 115.575 1268.71 Q115.575 1264.96 113.723 1262.8 Q111.895 1260.65 108.746 1260.65 M118.029 1246 L118.029 1250.26 Q116.27 1249.42 114.464 1248.99 Q112.682 1248.55 110.922 1248.55 Q106.293 1248.55 103.839 1251.67 Q101.409 1254.8 101.061 1261.11 Q102.427 1259.1 104.487 1258.04 Q106.547 1256.95 109.024 1256.95 Q114.233 1256.95 117.242 1260.12 Q120.274 1263.27 120.274 1268.71 Q120.274 1274.03 117.126 1277.25 Q113.978 1280.47 108.746 1280.47 Q102.751 1280.47 99.5798 1275.88 Q96.4085 1271.28 96.4085 1262.55 Q96.4085 1254.36 100.297 1249.49 Q104.186 1244.61 110.737 1244.61 Q112.496 1244.61 114.279 1244.96 Q116.084 1245.3 118.029 1246 Z" fill="#000000" fill-rule="nonzero" fill-opacity="1" /><path clip-path="url(#clip750)" d="M64.0013 1001.38 Q60.3902 1001.38 58.5615 1004.94 Q56.756 1008.48 56.756 1015.61 Q56.756 1022.72 58.5615 1026.28 Q60.3902 1029.82 64.0013 1029.82 Q67.6356 1029.82 69.4411 1026.28 Q71.2698 1022.72 71.2698 1015.61 Q71.2698 1008.48 69.4411 1004.94 Q67.6356 1001.38 64.0013 1001.38 M64.0013 997.672 Q69.8115 997.672 72.867 1002.28 Q75.9457 1006.86 75.9457 1015.61 Q75.9457 1024.34 72.867 1028.94 Q69.8115 1033.53 64.0013 1033.53 Q58.1912 1033.53 55.1125 1028.94 Q52.0569 1024.34 52.0569 1015.61 Q52.0569 1006.86 55.1125 1002.28 Q58.1912 997.672 64.0013 997.672 Z" fill="#000000" fill-rule="nonzero" fill-opacity="1" /><path clip-path="url(#clip750)" d="M84.1632 1026.98 L89.0475 1026.98 L89.0475 1032.86 L84.1632 1032.86 L84.1632 1026.98 Z" fill="#000000" fill-rule="nonzero" fill-opacity="1" /><path clip-path="url(#clip750)" d="M98.0521 998.297 L120.274 998.297 L120.274 1000.29 L107.728 1032.86 L102.844 1032.86 L114.649 1002.23 L98.0521 1002.23 L98.0521 998.297 Z" fill="#000000" fill-rule="nonzero" fill-opacity="1" /><path clip-path="url(#clip750)" d="M63.1911 754.437 Q59.58 754.437 57.7513 758.002 Q55.9458 761.544 55.9458 768.673 Q55.9458 775.78 57.7513 779.345 Q59.58 782.886 63.1911 782.886 Q66.8254 782.886 68.6309 779.345 Q70.4596 775.78 70.4596 768.673 Q70.4596 761.544 68.6309 758.002 Q66.8254 754.437 63.1911 754.437 M63.1911 750.734 Q69.0013 750.734 72.0568 755.34 Q75.1355 759.923 75.1355 768.673 Q75.1355 777.4 72.0568 782.007 Q69.0013 786.59 63.1911 786.59 Q57.381 786.59 54.3023 782.007 Q51.2468 777.4 51.2468 768.673 Q51.2468 759.923 54.3023 755.34 Q57.381 750.734 63.1911 750.734 Z" fill="#000000" fill-rule="nonzero" fill-opacity="1" /><path clip-path="url(#clip750)" d="M83.3531 780.039 L88.2373 780.039 L88.2373 785.919 L83.3531 785.919 L83.3531 780.039 Z" fill="#000000" fill-rule="nonzero" fill-opacity="1" /><path clip-path="url(#clip750)" d="M108.422 769.507 Q105.089 769.507 103.168 771.289 Q101.27 773.071 101.27 776.196 Q101.27 779.321 103.168 781.104 Q105.089 782.886 108.422 782.886 Q111.756 782.886 113.677 781.104 Q115.598 779.298 115.598 776.196 Q115.598 773.071 113.677 771.289 Q111.779 769.507 108.422 769.507 M103.746 767.516 Q100.737 766.775 99.0474 764.715 Q97.3808 762.655 97.3808 759.692 Q97.3808 755.548 100.321 753.141 Q103.284 750.734 108.422 750.734 Q113.584 750.734 116.524 753.141 Q119.464 755.548 119.464 759.692 Q119.464 762.655 117.774 764.715 Q116.108 766.775 113.121 767.516 Q116.501 768.303 118.376 770.595 Q120.274 772.886 120.274 776.196 Q120.274 781.22 117.195 783.905 Q114.14 786.59 108.422 786.59 Q102.705 786.59 99.6261 783.905 Q96.5706 781.22 96.5706 776.196 Q96.5706 772.886 98.4687 770.595 Q100.367 768.303 103.746 767.516 M102.034 760.132 Q102.034 762.817 103.7 764.321 Q105.39 765.826 108.422 765.826 Q111.432 765.826 113.121 764.321 Q114.834 762.817 114.834 760.132 Q114.834 757.447 113.121 755.942 Q111.432 754.437 108.422 754.437 Q105.39 754.437 103.7 755.942 Q102.034 757.447 102.034 760.132 Z" fill="#000000" fill-rule="nonzero" fill-opacity="1" /><path clip-path="url(#clip750)" d="M63.2837 507.499 Q59.6726 507.499 57.8439 511.064 Q56.0384 514.605 56.0384 521.735 Q56.0384 528.841 57.8439 532.406 Q59.6726 535.948 63.2837 535.948 Q66.918 535.948 68.7235 532.406 Q70.5522 528.841 70.5522 521.735 Q70.5522 514.605 68.7235 511.064 Q66.918 507.499 63.2837 507.499 M63.2837 503.795 Q69.0939 503.795 72.1494 508.402 Q75.2281 512.985 75.2281 521.735 Q75.2281 530.462 72.1494 535.068 Q69.0939 539.652 63.2837 539.652 Q57.4736 539.652 54.3949 535.068 Q51.3393 530.462 51.3393 521.735 Q51.3393 512.985 54.3949 508.402 Q57.4736 503.795 63.2837 503.795 Z" fill="#000000" fill-rule="nonzero" fill-opacity="1" /><path clip-path="url(#clip750)" d="M83.4457 533.101 L88.3299 533.101 L88.3299 538.98 L83.4457 538.98 L83.4457 533.101 Z" fill="#000000" fill-rule="nonzero" fill-opacity="1" /><path clip-path="url(#clip750)" d="M98.6539 538.263 L98.6539 534.003 Q100.413 534.837 102.219 535.277 Q104.024 535.716 105.76 535.716 Q110.39 535.716 112.82 532.615 Q115.274 529.49 115.621 523.147 Q114.279 525.138 112.219 526.203 Q110.158 527.267 107.658 527.267 Q102.473 527.267 99.4409 524.142 Q96.4317 520.994 96.4317 515.555 Q96.4317 510.23 99.5798 507.013 Q102.728 503.795 107.959 503.795 Q113.955 503.795 117.103 508.402 Q120.274 512.985 120.274 521.735 Q120.274 529.906 116.385 534.791 Q112.52 539.652 105.969 539.652 Q104.209 539.652 102.404 539.304 Q100.598 538.957 98.6539 538.263 M107.959 523.61 Q111.108 523.61 112.936 521.457 Q114.788 519.304 114.788 515.555 Q114.788 511.828 112.936 509.675 Q111.108 507.499 107.959 507.499 Q104.811 507.499 102.959 509.675 Q101.131 511.828 101.131 515.555 Q101.131 519.304 102.959 521.457 Q104.811 523.61 107.959 523.61 Z" fill="#000000" fill-rule="nonzero" fill-opacity="1" /><path clip-path="url(#clip750)" d="M53.9088 288.107 L61.5476 288.107 L61.5476 261.741 L53.2375 263.408 L53.2375 259.149 L61.5013 257.482 L66.1772 257.482 L66.1772 288.107 L73.8161 288.107 L73.8161 292.042 L53.9088 292.042 L53.9088 288.107 Z" fill="#000000" fill-rule="nonzero" fill-opacity="1" /><path clip-path="url(#clip750)" d="M83.2605 286.162 L88.1447 286.162 L88.1447 292.042 L83.2605 292.042 L83.2605 286.162 Z" fill="#000000" fill-rule="nonzero" fill-opacity="1" /><path clip-path="url(#clip750)" d="M108.33 260.561 Q104.719 260.561 102.89 264.125 Q101.084 267.667 101.084 274.797 Q101.084 281.903 102.89 285.468 Q104.719 289.01 108.33 289.01 Q111.964 289.01 113.77 285.468 Q115.598 281.903 115.598 274.797 Q115.598 267.667 113.77 264.125 Q111.964 260.561 108.33 260.561 M108.33 256.857 Q114.14 256.857 117.195 261.463 Q120.274 266.047 120.274 274.797 Q120.274 283.524 117.195 288.13 Q114.14 292.713 108.33 292.713 Q102.52 292.713 99.4409 288.13 Q96.3854 283.524 96.3854 274.797 Q96.3854 266.047 99.4409 261.463 Q102.52 256.857 108.33 256.857 Z" fill="#000000" fill-rule="nonzero" fill-opacity="1" /><path clip-path="url(#clip752)" d="M218.439 279.602 L239.16 440.087 L259.882 452.372 L280.603 464.596 L301.325 476.759 L322.046 488.861 L342.768 500.902 L363.489 512.883 L384.211 524.804 L404.932 536.666 L425.654 548.468 L446.376 560.211 L467.097 571.896 L487.819 583.522 L508.54 595.09 L529.262 606.6 L549.983 618.053 L570.705 629.448 L591.426 640.787 L612.148 652.068 L632.869 663.294 L653.591 674.463 L674.312 685.576 L695.034 696.634 L715.755 707.636 L736.477 718.584 L757.198 729.476 L777.92 740.315 L798.641 751.099 L819.363 761.829 L840.085 772.505 L860.806 783.128 L881.528 793.698 L902.249 804.215 L922.971 814.68 L943.692 825.092 L964.414 835.452 L985.135 845.761 L1005.86 856.018 L1026.58 866.223 L1047.3 876.378 L1068.02 886.481 L1088.74 896.535 L1109.46 906.537 L1130.19 916.49 L1150.91 926.394 L1171.63 936.247 L1192.35 946.052 L1213.07 955.807 L1233.79 965.514 L1254.52 975.172 L1275.24 984.781 L1295.96 994.343 L1316.68 1003.86 L1337.4 1013.32 L1358.12 1022.74 L1378.84 1032.11 L1399.57 1041.44 L1420.29 1050.72 L1441.01 1059.95 L1461.73 1069.14 L1482.45 1078.28 L1503.17 1087.37 L1523.89 1096.42 L1544.62 1105.42 L1565.34 1114.38 L1586.06 1123.29 L1606.78 1132.16 L1627.5 1140.99 L1648.22 1149.77 L1668.95 1158.51 L1689.67 1167.2 L1710.39 1175.85 L1731.11 1184.45 L1751.83 1193.02 L1772.55 1201.54 L1793.27 1210.02 L1814 1218.45 L1834.72 1226.85 L1855.44 1235.2 L1876.16 1243.51 L1896.88 1251.77 L1917.6 1260 L1938.33 1268.19 L1959.05 1276.33 L1979.77 1284.44 L2000.49 1292.5 L2021.21 1300.52 L2041.93 1308.51 L2062.65 1316.45 L2083.38 1324.35 L2104.1 1332.22 L2124.82 1340.04 L2145.54 1347.83 L2166.26 1355.57 L2186.98 1363.28 L2207.71 1370.95 L2228.43 1378.58 L2249.15 1386.17 L2269.87 1393.73 L2290.59 1401.32 L2290.59 1095.21 L2269.87 1087.77 L2249.15 1080.22 L2228.43 1072.62 L2207.71 1064.99 L2186.98 1057.32 L2166.26 1049.62 L2145.54 1041.87 L2124.82 1034.08 L2104.1 1026.26 L2083.38 1018.39 L2062.65 1010.49 L2041.93 1002.55 L2021.21 994.565 L2000.49 986.542 L1979.77 978.479 L1959.05 970.375 L1938.33 962.23 L1917.6 954.044 L1896.88 945.818 L1876.16 937.55 L1855.44 929.24 L1834.72 920.889 L1814 912.495 L1793.27 904.06 L1772.55 895.582 L1751.83 887.061 L1731.11 878.498 L1710.39 869.892 L1689.67 861.242 L1668.95 852.549 L1648.22 843.812 L1627.5 835.031 L1606.78 826.207 L1586.06 817.337 L1565.34 808.424 L1544.62 799.465 L1523.89 790.462 L1503.17 781.413 L1482.45 772.319 L1461.73 763.179 L1441.01 753.993 L1420.29 744.761 L1399.57 735.482 L1378.84 726.157 L1358.12 716.786 L1337.4 707.367 L1316.68 697.9 L1295.96 688.386 L1275.24 678.825 L1254.52 669.215 L1233.79 659.557 L1213.07 649.85 L1192.35 640.095 L1171.63 630.29 L1150.91 620.437 L1130.19 610.534 L1109.46 600.581 L1088.74 590.578 L1068.02 580.525 L1047.3 570.421 L1026.58 560.266 L1005.86 550.061 L985.135 539.804 L964.414 529.496 L943.692 519.135 L922.971 508.723 L902.249 498.259 L881.528 487.742 L860.806 477.172 L840.085 466.549 L819.363 455.872 L798.641 445.142 L777.92 434.358 L757.198 423.52 L736.477 412.627 L715.755 401.68 L695.034 390.677 L674.312 379.619 L653.591 368.506 L632.869 357.337 L612.148 346.112 L591.426 334.83 L570.705 323.492 L549.983 312.096 L529.262 300.644 L508.54 289.133 L487.819 277.565 L467.097 265.939 L446.376 254.255 L425.654 242.511 L404.932 230.709 L384.211 218.848 L363.489 206.926 L342.768 194.945 L322.046 182.904 L301.325 170.802 L280.603 158.639 L259.882 146.416 L239.16 134.131 L218.439 269.922  Z" fill="#009af9" fill-rule="evenodd" fill-opacity="0.5"/>
<polyline clip-path="url(#clip752)" style="stroke:#009af9; stroke-linecap:round; stroke-linejoin:round; stroke-width:4; stroke-opacity:1; fill:none" points="218.439,274.762 239.16,287.109 259.882,299.394 280.603,311.618 301.325,323.78 322.046,335.882 342.768,347.924 363.489,359.905 384.211,371.826 404.932,383.688 425.654,395.49 446.376,407.233 467.097,418.918 487.819,430.544 508.54,442.112 529.262,453.622 549.983,465.075 570.705,476.47 591.426,487.808 612.148,499.09 632.869,510.315 653.591,521.484 674.312,532.598 695.034,543.655 715.755,554.658 736.477,565.605 757.198,576.498 777.92,587.336 798.641,598.12 819.363,608.85 840.085,619.527 860.806,630.15 881.528,640.72 902.249,651.237 922.971,661.702 943.692,672.114 964.414,682.474 985.135,692.782 1005.86,703.039 1026.58,713.245 1047.3,723.399 1068.02,733.503 1088.74,743.556 1109.46,753.559 1130.19,763.512 1150.91,773.415 1171.63,783.269 1192.35,793.073 1213.07,802.829 1233.79,812.535 1254.52,822.193 1275.24,831.803 1295.96,841.365 1316.68,850.879 1337.4,860.345 1358.12,869.764 1378.84,879.136 1399.57,888.461 1420.29,897.739 1441.01,906.971 1461.73,916.157 1482.45,925.297 1503.17,934.391 1523.89,943.44 1544.62,952.444 1565.34,961.402 1586.06,970.316 1606.78,979.185 1627.5,988.01 1648.22,996.79 1668.95,1005.53 1689.67,1014.22 1710.39,1022.87 1731.11,1031.48 1751.83,1040.04 1772.55,1048.56 1793.27,1057.04 1814,1065.47 1834.72,1073.87 1855.44,1082.22 1876.16,1090.53 1896.88,1098.8 1917.6,1107.02 1938.33,1115.21 1959.05,1123.35 1979.77,1131.46 2000.49,1139.52 2021.21,1147.54 2041.93,1155.53 2062.65,1163.47 2083.38,1171.37 2104.1,1179.24 2124.82,1187.06 2145.54,1194.85 2166.26,1202.59 2186.98,1210.3 2207.71,1217.97 2228.43,1225.6 2249.15,1233.19 2269.87,1240.75 2290.59,1248.27 "/>
<polyline clip-path="url(#clip752)" style="stroke:#e26f46; stroke-linecap:round; stroke-linejoin:round; stroke-width:4; stroke-opacity:1; fill:none" stroke-dasharray="16, 10" points="218.439,269.069 239.16,289.935 259.882,239.103 280.603,87.9763 301.325,302.205 322.046,236.737 342.768,255.493 363.489,319.314 384.211,408.555 404.932,368.225 425.654,190.367 446.376,531.134 467.097,347.914 487.819,317.708 508.54,536.99 529.262,472.432 549.983,573.038 570.705,368.209 591.426,499.182 612.148,480.867 632.869,357.005 653.591,510.35 674.312,554.904 695.034,617.026 715.755,637.283 736.477,527.046 757.198,551.806 777.92,488.038 798.641,629.449 819.363,525.358 840.085,830.499 860.806,808.858 881.528,671.717 902.249,721.308 922.971,678.993 943.692,620.424 964.414,691.457 985.135,786.05 1005.86,597.932 1026.58,667.709 1047.3,629.78 1068.02,780.336 1088.74,696.045 1109.46,688.696 1130.19,787.601 1150.91,826.36 1171.63,772.29 1192.35,805.712 1213.07,683.985 1233.79,696.663 1254.52,886.617 1275.24,886.667 1295.96,736.105 1316.68,823.094 1337.4,851.381 1358.12,866.639 1378.84,974.929 1399.57,1003.62 1420.29,935.556 1441.01,900.251 1461.73,942.393 1482.45,929.609 1503.17,818.945 1523.89,983.181 1544.62,946.24 1565.34,854.056 1586.06,944.308 1606.78,971.289 1627.5,961.095 1648.22,900.507 1668.95,978.059 1689.67,1136.58 1710.39,1006.92 1731.11,960.421 1751.83,1042.55 1772.55,948.099 1793.27,910.739 1814,1161.71 1834.72,1041.85 1855.44,1157.01 1876.16,1154.86 1896.88,1168.58 1917.6,946.54 1938.33,1116.69 1959.05,1273.81 1979.77,1191.27 2000.49,1138.18 2021.21,1105.05 2041.93,1168.46 2062.65,1117.54 2083.38,1079.37 2104.1,1250.26 2124.82,1076.2 2145.54,1163.17 2166.26,1114.52 2186.98,1173.08 2207.71,1223.25 2228.43,1144.81 2249.15,1214.92 2269.87,1445.72 2290.59,1102.44 "/>
<polyline clip-path="url(#clip752)" style="stroke:#3da44d; stroke-linecap:round; stroke-linejoin:round; stroke-width:4; stroke-opacity:1; fill:none" stroke-dasharray="16, 10" points="218.439,275.067 239.16,289.599 259.882,264.964 280.603,232.793 301.325,344.125 322.046,315.02 342.768,382.718 363.489,247.902 384.211,377.322 404.932,465.063 425.654,422.755 446.376,502.019 467.097,512.478 487.819,495.157 508.54,459.617 529.262,530.114 549.983,410.273 570.705,566.7 591.426,420.974 612.148,672.718 632.869,403.452 653.591,552.665 674.312,527.982 695.034,468.126 715.755,520.768 736.477,609.638 757.198,653.242 777.92,514.809 798.641,749.608 819.363,690.66 840.085,645.698 860.806,753.151 881.528,581.995 902.249,680.726 922.971,662.289 943.692,646.185 964.414,687.836 985.135,687.824 1005.86,830.57 1026.58,621.223 1047.3,653.15 1068.02,710.338 1088.74,681.216 1109.46,867.51 1130.19,851.729 1150.91,879.773 1171.63,816.631 1192.35,744.602 1213.07,853.759 1233.79,888.111 1254.52,771.708 1275.24,765.815 1295.96,754.354 1316.68,801.399 1337.4,908.377 1358.12,591.931 1378.84,880.577 1399.57,941.644 1420.29,768.6 1441.01,1105.07 1461.73,991.727 1482.45,686.064 1503.17,856.669 1523.89,947.427 1544.62,945.238 1565.34,880.434 1586.06,863.052 1606.78,1091.73 1627.5,938.785 1648.22,1100.89 1668.95,1045.94 1689.67,1046.5 1710.39,860.92 1731.11,958.235 1751.83,1075.22 1772.55,995.476 1793.27,1073.91 1814,1135.4 1834.72,1014.14 1855.44,1178.84 1876.16,1099.54 1896.88,1203.38 1917.6,1062.16 1938.33,1051.16 1959.05,1163.44 1979.77,1192.87 2000.49,1019.04 2021.21,1052.66 2041.93,1145.35 2062.65,1095.05 2083.38,1120.24 2104.1,1211.56 2124.82,1221.5 2145.54,1287.23 2166.26,1189.49 2186.98,1232.91 2207.71,1273.67 2228.43,1168.1 2249.15,1269.73 2269.87,1083.03 2290.59,1118.76 "/>
<polyline clip-path="url(#clip752)" style="stroke:#c271d2; stroke-linecap:round; stroke-linejoin:round; stroke-width:4; stroke-opacity:1; fill:none" stroke-dasharray="16, 10" points="218.439,272.988 239.16,220.802 259.882,348.624 280.603,219.773 301.325,357.749 322.046,421.667 342.768,295.254 363.489,318.656 384.211,334.718 404.932,406.191 425.654,429.975 446.376,374.102 467.097,289.85 487.819,507.726 508.54,527.474 529.262,464.255 549.983,466.889 570.705,478.277 591.426,538.041 612.148,496.174 632.869,431.871 653.591,550.644 674.312,519.797 695.034,436.258 715.755,624.146 736.477,683.398 757.198,502.294 777.92,432.408 798.641,457.131 819.363,569.247 840.085,637.473 860.806,507.175 881.528,680.819 902.249,635.318 922.971,498.334 943.692,671.345 964.414,650.05 985.135,702.024 1005.86,585.629 1026.58,657.633 1047.3,806.321 1068.02,802.997 1088.74,780.072 1109.46,913.102 1130.19,865.188 1150.91,777.154 1171.63,810.566 1192.35,873.059 1213.07,726.214 1233.79,681.674 1254.52,798.988 1275.24,953.79 1295.96,1060.09 1316.68,965.558 1337.4,894.086 1358.12,967.623 1378.84,801.606 1399.57,823.461 1420.29,809.692 1441.01,856.043 1461.73,937.674 1482.45,1104.94 1503.17,863.04 1523.89,993.853 1544.62,875.475 1565.34,995.911 1586.06,1013.42 1606.78,1052.47 1627.5,948.928 1648.22,1077.74 1668.95,948.315 1689.67,939.667 1710.39,1012.48 1731.11,1025.51 1751.83,1098.59 1772.55,1056.76 1793.27,1114.54 1814,1173.73 1834.72,856.067 1855.44,1146.65 1876.16,1004.7 1896.88,1140.39 1917.6,997.683 1938.33,1204.11 1959.05,1147.08 1979.77,1022 2000.49,1199.42 2021.21,1181.54 2041.93,1056.32 2062.65,1088.07 2083.38,1070.12 2104.1,1258.03 2124.82,1145.23 2145.54,1230.65 2166.26,1148.29 2186.98,1250.58 2207.71,1359.37 2228.43,1209.31 2249.15,1166.76 2269.87,1218.28 2290.59,1198.44 "/>
<path clip-path="url(#clip750)" d="M1796.44 354.418 L2279.54 354.418 L2279.54 95.2176 L1796.44 95.2176  Z" fill="#ffffff" fill-rule="evenodd" fill-opacity="1"/>
<polyline clip-path="url(#clip750)" style="stroke:#000000; stroke-linecap:round; stroke-linejoin:round; stroke-width:4; stroke-opacity:1; fill:none" points="1796.44,354.418 2279.54,354.418 2279.54,95.2176 1796.44,95.2176 1796.44,354.418 "/>
<polyline clip-path="url(#clip750)" style="stroke:#009af9; stroke-linecap:round; stroke-linejoin:round; stroke-width:4; stroke-opacity:1; fill:none" points="1820.85,147.058 1967.28,147.058 "/>
<path clip-path="url(#clip750)" d="M1991.69 129.778 L1998.65 129.778 L2007.47 153.296 L2016.34 129.778 L2023.31 129.778 L2023.31 164.338 L2018.75 164.338 L2018.75 133.99 L2009.83 157.694 L2005.14 157.694 L1996.22 133.99 L1996.22 164.338 L1991.69 164.338 L1991.69 129.778 Z" fill="#000000" fill-rule="nonzero" fill-opacity="1" /><path clip-path="url(#clip750)" d="M2054.58 150.31 L2054.58 152.393 L2035 152.393 Q2035.27 156.791 2037.64 159.106 Q2040.02 161.398 2044.26 161.398 Q2046.71 161.398 2049 160.796 Q2051.32 160.194 2053.58 158.99 L2053.58 163.018 Q2051.29 163.99 2048.89 164.5 Q2046.48 165.009 2044 165.009 Q2037.8 165.009 2034.16 161.398 Q2030.55 157.787 2030.55 151.629 Q2030.55 145.264 2033.98 141.537 Q2037.43 137.787 2043.26 137.787 Q2048.49 137.787 2051.52 141.166 Q2054.58 144.523 2054.58 150.31 M2050.32 149.06 Q2050.27 145.565 2048.35 143.481 Q2046.46 141.398 2043.31 141.398 Q2039.74 141.398 2037.59 143.412 Q2035.46 145.426 2035.14 149.083 L2050.32 149.06 Z" fill="#000000" fill-rule="nonzero" fill-opacity="1" /><path clip-path="url(#clip750)" d="M2073.35 151.305 Q2068.19 151.305 2066.2 152.486 Q2064.21 153.666 2064.21 156.514 Q2064.21 158.782 2065.69 160.125 Q2067.2 161.444 2069.77 161.444 Q2073.31 161.444 2075.44 158.944 Q2077.59 156.421 2077.59 152.254 L2077.59 151.305 L2073.35 151.305 M2081.85 149.546 L2081.85 164.338 L2077.59 164.338 L2077.59 160.402 Q2076.13 162.763 2073.95 163.898 Q2071.78 165.009 2068.63 165.009 Q2064.65 165.009 2062.29 162.787 Q2059.95 160.541 2059.95 156.791 Q2059.95 152.416 2062.87 150.194 Q2065.81 147.972 2071.62 147.972 L2077.59 147.972 L2077.59 147.555 Q2077.59 144.615 2075.64 143.018 Q2073.72 141.398 2070.23 141.398 Q2068.01 141.398 2065.9 141.93 Q2063.79 142.463 2061.85 143.527 L2061.85 139.592 Q2064.19 138.69 2066.39 138.25 Q2068.58 137.787 2070.67 137.787 Q2076.29 137.787 2079.07 140.703 Q2081.85 143.62 2081.85 149.546 Z" fill="#000000" fill-rule="nonzero" fill-opacity="1" /><path clip-path="url(#clip750)" d="M2112.17 148.689 L2112.17 164.338 L2107.91 164.338 L2107.91 148.828 Q2107.91 145.148 2106.48 143.319 Q2105.04 141.49 2102.17 141.49 Q2098.72 141.49 2096.73 143.69 Q2094.74 145.889 2094.74 149.685 L2094.74 164.338 L2090.46 164.338 L2090.46 138.412 L2094.74 138.412 L2094.74 142.44 Q2096.27 140.102 2098.33 138.944 Q2100.41 137.787 2103.12 137.787 Q2107.59 137.787 2109.88 140.565 Q2112.17 143.319 2112.17 148.689 Z" fill="#000000" fill-rule="nonzero" fill-opacity="1" /><path clip-path="url(#clip750)" d="M2153.07 134.615 L2153.07 147.509 L2165.97 147.509 L2165.97 151.444 L2153.07 151.444 L2153.07 164.338 L2149.19 164.338 L2149.19 151.444 L2136.29 151.444 L2136.29 147.509 L2149.19 147.509 L2149.19 134.615 L2153.07 134.615 Z" fill="#000000" fill-rule="nonzero" fill-opacity="1" /><path clip-path="url(#clip750)" d="M2207.06 139.176 L2207.06 143.203 Q2205.25 142.277 2203.31 141.815 Q2201.36 141.352 2199.28 141.352 Q2196.11 141.352 2194.51 142.324 Q2192.94 143.296 2192.94 145.24 Q2192.94 146.722 2194.07 147.578 Q2195.2 148.412 2198.63 149.176 L2200.09 149.5 Q2204.63 150.472 2206.52 152.254 Q2208.44 154.014 2208.44 157.185 Q2208.44 160.796 2205.57 162.902 Q2202.73 165.009 2197.73 165.009 Q2195.64 165.009 2193.38 164.592 Q2191.13 164.199 2188.63 163.388 L2188.63 158.99 Q2190.99 160.217 2193.28 160.842 Q2195.57 161.444 2197.82 161.444 Q2200.83 161.444 2202.45 160.426 Q2204.07 159.384 2204.07 157.509 Q2204.07 155.773 2202.89 154.847 Q2201.73 153.921 2197.77 153.064 L2196.29 152.717 Q2192.33 151.884 2190.57 150.171 Q2188.82 148.435 2188.82 145.426 Q2188.82 141.768 2191.41 139.778 Q2194 137.787 2198.77 137.787 Q2201.13 137.787 2203.21 138.134 Q2205.3 138.481 2207.06 139.176 Z" fill="#000000" fill-rule="nonzero" fill-opacity="1" /><path clip-path="url(#clip750)" d="M2219.44 131.051 L2219.44 138.412 L2228.21 138.412 L2228.21 141.722 L2219.44 141.722 L2219.44 155.796 Q2219.44 158.967 2220.3 159.87 Q2221.18 160.773 2223.84 160.773 L2228.21 160.773 L2228.21 164.338 L2223.84 164.338 Q2218.91 164.338 2217.03 162.509 Q2215.16 160.657 2215.16 155.796 L2215.16 141.722 L2212.03 141.722 L2212.03 138.412 L2215.16 138.412 L2215.16 131.051 L2219.44 131.051 Z" fill="#000000" fill-rule="nonzero" fill-opacity="1" /><path clip-path="url(#clip750)" d="M2250.88 142.347 L2250.88 128.319 L2255.13 128.319 L2255.13 164.338 L2250.88 164.338 L2250.88 160.449 Q2249.53 162.763 2247.47 163.898 Q2245.44 165.009 2242.57 165.009 Q2237.87 165.009 2234.9 161.259 Q2231.96 157.509 2231.96 151.398 Q2231.96 145.287 2234.9 141.537 Q2237.87 137.787 2242.57 137.787 Q2245.44 137.787 2247.47 138.921 Q2249.53 140.032 2250.88 142.347 M2236.36 151.398 Q2236.36 156.097 2238.28 158.782 Q2240.23 161.444 2243.61 161.444 Q2246.99 161.444 2248.93 158.782 Q2250.88 156.097 2250.88 151.398 Q2250.88 146.699 2248.93 144.037 Q2246.99 141.352 2243.61 141.352 Q2240.23 141.352 2238.28 144.037 Q2236.36 146.699 2236.36 151.398 Z" fill="#000000" fill-rule="nonzero" fill-opacity="1" /><polyline clip-path="url(#clip750)" style="stroke:#e26f46; stroke-linecap:round; stroke-linejoin:round; stroke-width:4; stroke-opacity:1; fill:none" stroke-dasharray="16, 10" points="1820.85,198.898 1967.28,198.898 "/>
<path clip-path="url(#clip750)" d="M2013.93 182.752 L2013.93 187.312 Q2011.27 186.039 2008.91 185.414 Q2006.55 184.789 2004.35 184.789 Q2000.53 184.789 1998.45 186.27 Q1996.39 187.752 1996.39 190.483 Q1996.39 192.775 1997.75 193.955 Q1999.14 195.113 2002.98 195.83 L2005.81 196.409 Q2011.04 197.405 2013.52 199.928 Q2016.02 202.428 2016.02 206.641 Q2016.02 211.664 2012.64 214.256 Q2009.28 216.849 2002.77 216.849 Q2000.32 216.849 1997.54 216.293 Q1994.79 215.738 1991.83 214.65 L1991.83 209.835 Q1994.67 211.432 1997.4 212.242 Q2000.14 213.053 2002.77 213.053 Q2006.78 213.053 2008.96 211.479 Q2011.13 209.904 2011.13 206.988 Q2011.13 204.442 2009.56 203.006 Q2008.01 201.571 2004.44 200.854 L2001.59 200.298 Q1996.36 199.256 1994.02 197.034 Q1991.69 194.812 1991.69 190.854 Q1991.69 186.27 1994.9 183.631 Q1998.15 180.993 2003.82 180.993 Q2006.25 180.993 2008.77 181.432 Q2011.29 181.872 2013.93 182.752 Z" fill="#000000" fill-rule="nonzero" fill-opacity="1" /><path clip-path="url(#clip750)" d="M2034.9 203.145 Q2029.74 203.145 2027.75 204.326 Q2025.76 205.506 2025.76 208.354 Q2025.76 210.622 2027.24 211.965 Q2028.75 213.284 2031.32 213.284 Q2034.86 213.284 2036.99 210.784 Q2039.14 208.261 2039.14 204.094 L2039.14 203.145 L2034.9 203.145 M2043.4 201.386 L2043.4 216.178 L2039.14 216.178 L2039.14 212.242 Q2037.68 214.603 2035.51 215.738 Q2033.33 216.849 2030.18 216.849 Q2026.2 216.849 2023.84 214.627 Q2021.5 212.381 2021.5 208.631 Q2021.5 204.256 2024.42 202.034 Q2027.36 199.812 2033.17 199.812 L2039.14 199.812 L2039.14 199.395 Q2039.14 196.455 2037.2 194.858 Q2035.27 193.238 2031.78 193.238 Q2029.56 193.238 2027.45 193.77 Q2025.34 194.303 2023.4 195.367 L2023.4 191.432 Q2025.74 190.53 2027.94 190.09 Q2030.14 189.627 2032.22 189.627 Q2037.84 189.627 2040.62 192.543 Q2043.4 195.46 2043.4 201.386 Z" fill="#000000" fill-rule="nonzero" fill-opacity="1" /><path clip-path="url(#clip750)" d="M2072.36 195.229 Q2073.95 192.358 2076.18 190.993 Q2078.4 189.627 2081.41 189.627 Q2085.46 189.627 2087.66 192.474 Q2089.86 195.298 2089.86 200.529 L2089.86 216.178 L2085.58 216.178 L2085.58 200.668 Q2085.58 196.942 2084.26 195.136 Q2082.94 193.33 2080.23 193.33 Q2076.92 193.33 2075 195.53 Q2073.08 197.729 2073.08 201.525 L2073.08 216.178 L2068.79 216.178 L2068.79 200.668 Q2068.79 196.918 2067.47 195.136 Q2066.15 193.33 2063.4 193.33 Q2060.14 193.33 2058.21 195.553 Q2056.29 197.752 2056.29 201.525 L2056.29 216.178 L2052.01 216.178 L2052.01 190.252 L2056.29 190.252 L2056.29 194.28 Q2057.75 191.895 2059.79 190.761 Q2061.83 189.627 2064.63 189.627 Q2067.45 189.627 2069.42 191.062 Q2071.41 192.497 2072.36 195.229 Z" fill="#000000" fill-rule="nonzero" fill-opacity="1" /><path clip-path="url(#clip750)" d="M2102.47 212.289 L2102.47 226.039 L2098.19 226.039 L2098.19 190.252 L2102.47 190.252 L2102.47 194.187 Q2103.82 191.872 2105.85 190.761 Q2107.91 189.627 2110.76 189.627 Q2115.48 189.627 2118.42 193.377 Q2121.39 197.127 2121.39 203.238 Q2121.39 209.349 2118.42 213.099 Q2115.48 216.849 2110.76 216.849 Q2107.91 216.849 2105.85 215.738 Q2103.82 214.603 2102.47 212.289 M2116.96 203.238 Q2116.96 198.539 2115.02 195.877 Q2113.1 193.192 2109.72 193.192 Q2106.34 193.192 2104.39 195.877 Q2102.47 198.539 2102.47 203.238 Q2102.47 207.937 2104.39 210.622 Q2106.34 213.284 2109.72 213.284 Q2113.1 213.284 2115.02 210.622 Q2116.96 207.937 2116.96 203.238 Z" fill="#000000" fill-rule="nonzero" fill-opacity="1" /><path clip-path="url(#clip750)" d="M2128.45 180.159 L2132.7 180.159 L2132.7 216.178 L2128.45 216.178 L2128.45 180.159 Z" fill="#000000" fill-rule="nonzero" fill-opacity="1" /><path clip-path="url(#clip750)" d="M2163.79 202.15 L2163.79 204.233 L2144.21 204.233 Q2144.49 208.631 2146.85 210.946 Q2149.23 213.238 2153.47 213.238 Q2155.92 213.238 2158.21 212.636 Q2160.53 212.034 2162.8 210.83 L2162.8 214.858 Q2160.51 215.83 2158.1 216.34 Q2155.69 216.849 2153.21 216.849 Q2147.01 216.849 2143.38 213.238 Q2139.76 209.627 2139.76 203.469 Q2139.76 197.104 2143.19 193.377 Q2146.64 189.627 2152.47 189.627 Q2157.7 189.627 2160.74 193.006 Q2163.79 196.363 2163.79 202.15 M2159.53 200.9 Q2159.49 197.405 2157.57 195.321 Q2155.67 193.238 2152.52 193.238 Q2148.95 193.238 2146.8 195.252 Q2144.67 197.266 2144.35 200.923 L2159.53 200.9 Z" fill="#000000" fill-rule="nonzero" fill-opacity="1" /><polyline clip-path="url(#clip750)" style="stroke:#3da44d; stroke-linecap:round; stroke-linejoin:round; stroke-width:4; stroke-opacity:1; fill:none" stroke-dasharray="16, 10" points="1820.85,250.738 1967.28,250.738 "/>
<path clip-path="url(#clip750)" d="M2013.93 234.592 L2013.93 239.152 Q2011.27 237.879 2008.91 237.254 Q2006.55 236.629 2004.35 236.629 Q2000.53 236.629 1998.45 238.11 Q1996.39 239.592 1996.39 242.323 Q1996.39 244.615 1997.75 245.795 Q1999.14 246.953 2002.98 247.67 L2005.81 248.249 Q2011.04 249.245 2013.52 251.768 Q2016.02 254.268 2016.02 258.481 Q2016.02 263.504 2012.64 266.096 Q2009.28 268.689 2002.77 268.689 Q2000.32 268.689 1997.54 268.133 Q1994.79 267.578 1991.83 266.49 L1991.83 261.675 Q1994.67 263.272 1997.4 264.082 Q2000.14 264.893 2002.77 264.893 Q2006.78 264.893 2008.96 263.319 Q2011.13 261.744 2011.13 258.828 Q2011.13 256.282 2009.56 254.846 Q2008.01 253.411 2004.44 252.694 L2001.59 252.138 Q1996.36 251.096 1994.02 248.874 Q1991.69 246.652 1991.69 242.694 Q1991.69 238.11 1994.9 235.471 Q1998.15 232.833 2003.82 232.833 Q2006.25 232.833 2008.77 233.272 Q2011.29 233.712 2013.93 234.592 Z" fill="#000000" fill-rule="nonzero" fill-opacity="1" /><path clip-path="url(#clip750)" d="M2034.9 254.985 Q2029.74 254.985 2027.75 256.166 Q2025.76 257.346 2025.76 260.194 Q2025.76 262.462 2027.24 263.805 Q2028.75 265.124 2031.32 265.124 Q2034.86 265.124 2036.99 262.624 Q2039.14 260.101 2039.14 255.934 L2039.14 254.985 L2034.9 254.985 M2043.4 253.226 L2043.4 268.018 L2039.14 268.018 L2039.14 264.082 Q2037.68 266.443 2035.51 267.578 Q2033.33 268.689 2030.18 268.689 Q2026.2 268.689 2023.84 266.467 Q2021.5 264.221 2021.5 260.471 Q2021.5 256.096 2024.42 253.874 Q2027.36 251.652 2033.17 251.652 L2039.14 251.652 L2039.14 251.235 Q2039.14 248.295 2037.2 246.698 Q2035.27 245.078 2031.78 245.078 Q2029.56 245.078 2027.45 245.61 Q2025.34 246.143 2023.4 247.207 L2023.4 243.272 Q2025.74 242.37 2027.94 241.93 Q2030.14 241.467 2032.22 241.467 Q2037.84 241.467 2040.62 244.383 Q2043.4 247.3 2043.4 253.226 Z" fill="#000000" fill-rule="nonzero" fill-opacity="1" /><path clip-path="url(#clip750)" d="M2072.36 247.069 Q2073.95 244.198 2076.18 242.833 Q2078.4 241.467 2081.41 241.467 Q2085.46 241.467 2087.66 244.314 Q2089.86 247.138 2089.86 252.369 L2089.86 268.018 L2085.58 268.018 L2085.58 252.508 Q2085.58 248.782 2084.26 246.976 Q2082.94 245.17 2080.23 245.17 Q2076.92 245.17 2075 247.37 Q2073.08 249.569 2073.08 253.365 L2073.08 268.018 L2068.79 268.018 L2068.79 252.508 Q2068.79 248.758 2067.47 246.976 Q2066.15 245.17 2063.4 245.17 Q2060.14 245.17 2058.21 247.393 Q2056.29 249.592 2056.29 253.365 L2056.29 268.018 L2052.01 268.018 L2052.01 242.092 L2056.29 242.092 L2056.29 246.12 Q2057.75 243.735 2059.79 242.601 Q2061.83 241.467 2064.63 241.467 Q2067.45 241.467 2069.42 242.902 Q2071.41 244.337 2072.36 247.069 Z" fill="#000000" fill-rule="nonzero" fill-opacity="1" /><path clip-path="url(#clip750)" d="M2102.47 264.129 L2102.47 277.879 L2098.19 277.879 L2098.19 242.092 L2102.47 242.092 L2102.47 246.027 Q2103.82 243.712 2105.85 242.601 Q2107.91 241.467 2110.76 241.467 Q2115.48 241.467 2118.42 245.217 Q2121.39 248.967 2121.39 255.078 Q2121.39 261.189 2118.42 264.939 Q2115.48 268.689 2110.76 268.689 Q2107.91 268.689 2105.85 267.578 Q2103.82 266.443 2102.47 264.129 M2116.96 255.078 Q2116.96 250.379 2115.02 247.717 Q2113.1 245.032 2109.72 245.032 Q2106.34 245.032 2104.39 247.717 Q2102.47 250.379 2102.47 255.078 Q2102.47 259.777 2104.39 262.462 Q2106.34 265.124 2109.72 265.124 Q2113.1 265.124 2115.02 262.462 Q2116.96 259.777 2116.96 255.078 Z" fill="#000000" fill-rule="nonzero" fill-opacity="1" /><path clip-path="url(#clip750)" d="M2128.45 231.999 L2132.7 231.999 L2132.7 268.018 L2128.45 268.018 L2128.45 231.999 Z" fill="#000000" fill-rule="nonzero" fill-opacity="1" /><path clip-path="url(#clip750)" d="M2163.79 253.99 L2163.79 256.073 L2144.21 256.073 Q2144.49 260.471 2146.85 262.786 Q2149.23 265.078 2153.47 265.078 Q2155.92 265.078 2158.21 264.476 Q2160.53 263.874 2162.8 262.67 L2162.8 266.698 Q2160.51 267.67 2158.1 268.18 Q2155.69 268.689 2153.21 268.689 Q2147.01 268.689 2143.38 265.078 Q2139.76 261.467 2139.76 255.309 Q2139.76 248.944 2143.19 245.217 Q2146.64 241.467 2152.47 241.467 Q2157.7 241.467 2160.74 244.846 Q2163.79 248.203 2163.79 253.99 M2159.53 252.74 Q2159.49 249.245 2157.57 247.161 Q2155.67 245.078 2152.52 245.078 Q2148.95 245.078 2146.8 247.092 Q2144.67 249.106 2144.35 252.763 L2159.53 252.74 Z" fill="#000000" fill-rule="nonzero" fill-opacity="1" /><polyline clip-path="url(#clip750)" style="stroke:#c271d2; stroke-linecap:round; stroke-linejoin:round; stroke-width:4; stroke-opacity:1; fill:none" stroke-dasharray="16, 10" points="1820.85,302.578 1967.28,302.578 "/>
<path clip-path="url(#clip750)" d="M2013.93 286.432 L2013.93 290.992 Q2011.27 289.719 2008.91 289.094 Q2006.55 288.469 2004.35 288.469 Q2000.53 288.469 1998.45 289.95 Q1996.39 291.432 1996.39 294.163 Q1996.39 296.455 1997.75 297.635 Q1999.14 298.793 2002.98 299.51 L2005.81 300.089 Q2011.04 301.085 2013.52 303.608 Q2016.02 306.108 2016.02 310.321 Q2016.02 315.344 2012.64 317.936 Q2009.28 320.529 2002.77 320.529 Q2000.32 320.529 1997.54 319.973 Q1994.79 319.418 1991.83 318.33 L1991.83 313.515 Q1994.67 315.112 1997.4 315.922 Q2000.14 316.733 2002.77 316.733 Q2006.78 316.733 2008.96 315.159 Q2011.13 313.584 2011.13 310.668 Q2011.13 308.122 2009.56 306.686 Q2008.01 305.251 2004.44 304.534 L2001.59 303.978 Q1996.36 302.936 1994.02 300.714 Q1991.69 298.492 1991.69 294.534 Q1991.69 289.95 1994.9 287.311 Q1998.15 284.673 2003.82 284.673 Q2006.25 284.673 2008.77 285.112 Q2011.29 285.552 2013.93 286.432 Z" fill="#000000" fill-rule="nonzero" fill-opacity="1" /><path clip-path="url(#clip750)" d="M2034.9 306.825 Q2029.74 306.825 2027.75 308.006 Q2025.76 309.186 2025.76 312.034 Q2025.76 314.302 2027.24 315.645 Q2028.75 316.964 2031.32 316.964 Q2034.86 316.964 2036.99 314.464 Q2039.14 311.941 2039.14 307.774 L2039.14 306.825 L2034.9 306.825 M2043.4 305.066 L2043.4 319.858 L2039.14 319.858 L2039.14 315.922 Q2037.68 318.283 2035.51 319.418 Q2033.33 320.529 2030.18 320.529 Q2026.2 320.529 2023.84 318.307 Q2021.5 316.061 2021.5 312.311 Q2021.5 307.936 2024.42 305.714 Q2027.36 303.492 2033.17 303.492 L2039.14 303.492 L2039.14 303.075 Q2039.14 300.135 2037.2 298.538 Q2035.27 296.918 2031.78 296.918 Q2029.56 296.918 2027.45 297.45 Q2025.34 297.983 2023.4 299.047 L2023.4 295.112 Q2025.74 294.21 2027.94 293.77 Q2030.14 293.307 2032.22 293.307 Q2037.84 293.307 2040.62 296.223 Q2043.4 299.14 2043.4 305.066 Z" fill="#000000" fill-rule="nonzero" fill-opacity="1" /><path clip-path="url(#clip750)" d="M2072.36 298.909 Q2073.95 296.038 2076.18 294.673 Q2078.4 293.307 2081.41 293.307 Q2085.46 293.307 2087.66 296.154 Q2089.86 298.978 2089.86 304.209 L2089.86 319.858 L2085.58 319.858 L2085.58 304.348 Q2085.58 300.622 2084.26 298.816 Q2082.94 297.01 2080.23 297.01 Q2076.92 297.01 2075 299.21 Q2073.08 301.409 2073.08 305.205 L2073.08 319.858 L2068.79 319.858 L2068.79 304.348 Q2068.79 300.598 2067.47 298.816 Q2066.15 297.01 2063.4 297.01 Q2060.14 297.01 2058.21 299.233 Q2056.29 301.432 2056.29 305.205 L2056.29 319.858 L2052.01 319.858 L2052.01 293.932 L2056.29 293.932 L2056.29 297.96 Q2057.75 295.575 2059.79 294.441 Q2061.83 293.307 2064.63 293.307 Q2067.45 293.307 2069.42 294.742 Q2071.41 296.177 2072.36 298.909 Z" fill="#000000" fill-rule="nonzero" fill-opacity="1" /><path clip-path="url(#clip750)" d="M2102.47 315.969 L2102.47 329.719 L2098.19 329.719 L2098.19 293.932 L2102.47 293.932 L2102.47 297.867 Q2103.82 295.552 2105.85 294.441 Q2107.91 293.307 2110.76 293.307 Q2115.48 293.307 2118.42 297.057 Q2121.39 300.807 2121.39 306.918 Q2121.39 313.029 2118.42 316.779 Q2115.48 320.529 2110.76 320.529 Q2107.91 320.529 2105.85 319.418 Q2103.82 318.283 2102.47 315.969 M2116.96 306.918 Q2116.96 302.219 2115.02 299.557 Q2113.1 296.872 2109.72 296.872 Q2106.34 296.872 2104.39 299.557 Q2102.47 302.219 2102.47 306.918 Q2102.47 311.617 2104.39 314.302 Q2106.34 316.964 2109.72 316.964 Q2113.1 316.964 2115.02 314.302 Q2116.96 311.617 2116.96 306.918 Z" fill="#000000" fill-rule="nonzero" fill-opacity="1" /><path clip-path="url(#clip750)" d="M2128.45 283.839 L2132.7 283.839 L2132.7 319.858 L2128.45 319.858 L2128.45 283.839 Z" fill="#000000" fill-rule="nonzero" fill-opacity="1" /><path clip-path="url(#clip750)" d="M2163.79 305.83 L2163.79 307.913 L2144.21 307.913 Q2144.49 312.311 2146.85 314.626 Q2149.23 316.918 2153.47 316.918 Q2155.92 316.918 2158.21 316.316 Q2160.53 315.714 2162.8 314.51 L2162.8 318.538 Q2160.51 319.51 2158.1 320.02 Q2155.69 320.529 2153.21 320.529 Q2147.01 320.529 2143.38 316.918 Q2139.76 313.307 2139.76 307.149 Q2139.76 300.784 2143.19 297.057 Q2146.64 293.307 2152.47 293.307 Q2157.7 293.307 2160.74 296.686 Q2163.79 300.043 2163.79 305.83 M2159.53 304.58 Q2159.49 301.085 2157.57 299.001 Q2155.67 296.918 2152.52 296.918 Q2148.95 296.918 2146.8 298.932 Q2144.67 300.946 2144.35 304.603 L2159.53 304.58 Z" fill="#000000" fill-rule="nonzero" fill-opacity="1" /></svg>
